<?xml version="1.0" encoding="UTF-8"?>
<svg id="Capa_2" data-name="Capa 2" xmlns="http://www.w3.org/2000/svg" viewBox="0 0 278.27 169.53">
  <defs>
    <style>
      .cls-1 {
        fill: #d7141a;
      }

      .cls-1, .cls-2 {
        stroke-width: 0px;
      }

      .cls-2 {
        fill: #263238;
      }
    </style>
  </defs>
  <g id="Capa_2-2" data-name="Capa 2">
    <g>
      <polygon class="cls-2" points="278.27 35.81 260.36 71.65 242.45 107.46 224.55 143.28 152.92 143.28 135.01 107.46 152.92 71.65 170.82 107.46 206.64 107.46 224.55 71.65 242.45 35.81 135.01 35.81 135.01 0 260.36 0 278.27 35.81"/>
      <polygon class="cls-1" points="0 133.71 17.91 97.88 35.81 62.07 53.72 26.25 125.35 26.25 143.26 62.07 125.35 97.88 107.44 62.07 71.63 62.07 53.72 97.88 35.81 133.71 143.26 133.71 143.26 169.53 17.91 169.53 0 133.71"/>
    </g>
  </g>
</svg>